{"title":"REGIS_JUST THE INTERVIEWS_720p_20110407_TTL","uid":6305307,"size":424832395,"categoryP":"video","categoryS":"hd___tv_shows","magnet":"?xt=urn:btih:1f42b8b2bc35c9a95ea40e9503f69f9e4c65062c&amp;dn=REGIS_JUST+THE+INTERVIEWS_720p_20110407_TTL&amp;tr=udp%3A%2F%2Ftracker.openbittorrent.com%3A80&amp;tr=udp%3A%2F%2Fopen.demonii.com%3A1337&amp;tr=udp%3A%2F%2Ftracker.coppersurfer.tk%3A6969&amp;tr=udp%3A%2F%2Fexodus.desync.com%3A6969","seeders":0,"leechers":1,"uploader":"thetorrentlord","files":3,"time":1302304873,"description":"These are just the interviews:\t\t\t\t\t\t\t\t\t\t\n\n\t\t\t\t\t\t\t\t\t \n\nIan_Somerhalder_720p_20110407_TTL\t\t\t\t\t\t\t\t\t\n\n\t\t\t\t\t\t\t\t\t\t\n\nJim_Belushi_720p_20110407_TTL\t\t\t\t\t\t\t\t\t\t\n\n\t\t\t\t\t\t\t\t\t\t\t\t\t\n\n \t\t\t\t\t\t\t\t\t\t\t\t\t\n\nEnjoy and please share.\t\t\t\t\t\t\t\t\t\t\t\n\n\t\t\t\t\t\t\t\t\t\t\t\t\t\n\n\t\t\t\t\t\t\t\t\t\t\t\t\t\n\n\t\t\t\t\t\t\t\t\t\t\t\t\t\n\n\t\t\t\t\t\t\t\n\n******************************************************************************************************\n\n****************************************************************************************************\t\n\n\t\t\t\t\t\t\t\t\t\t\t\t\t\n\n\t\t\t\t\t\t\t\t\t\t\t\t\t\n\n\t\t\t\t\t\t\t\t\t\t\t\t\t\n\nRegis_Ian_Somerhalder_720p_20110407_TTL.avi\nFormat                           : AVI\nFormat/Info                      : Audio Video Interleave\nFile size                        : 198 MiB\nDuration                         : 12mn 6s\nOverall bit rate                 : 2 290 Kbps\nMovie name                       : Regis_Ian Somerhalder_720p_20110407_TTL.mpg\nDirector                         : created.with.SUPER(C).v2010.bld.37\nWriting application              : SUPER(C)   \n\nVideo\nID                               : 0\nFormat                           : MPEG-4 Visual\nFormat profile                   : Simple@L3\nFormat settings, BVOP            : No\nFormat settings, QPel            : No\nFormat settings, GMC             : No warppoints\nFormat settings, Matrix          : Default (H.263)\nCodec ID                         : XVID\nCodec ID/Hint                    : XviD\nDuration                         : 6mn 3s\nBit rate                         : 4 456 Kbps\nWidth                            : 1 280 pixels\nHeight                           : 720 pixels\nDisplay aspect ratio             : 16:9\nFrame rate                       : 29.970 fps\nResolution                       : 8 bits\nColorimetry                      : 4:2:0\nScan type                        : Progressive\nBits/(Pixel*Frame)               : 0.161\nStream size                      : 193 MiB (97%)\nWriting library                  : XviD 1.1.2 (UTC 2006-11-01)\n\nAudio\nID                               : 1\nFormat                           : MPEG Audio\nFormat version                   : Version 2\nFormat profile                   : Layer 3\nMode                             : Joint stereo\nFormat_Settings_ModeExtension    : MS Stereo\nCodec ID                         : 55\nCodec ID/Hint                    : MP3\nDuration                         : 12mn 6s\nBit rate mode                    : Constant\nBit rate                         : 112 Kbps\nChannel(s)                       : 2 channels\nSampling rate                    : 22.05 KHz\nStream size                      : 4.85 MiB (2%)\nAlignment                        : Aligned on interleaves\nInterleave, duration             : 26 ms (0.78 video frame)\nInterleave, preload duration     : 26 ms\n\n\n\n","torrent":{"xt":"urn:btih:1f42b8b2bc35c9a95ea40e9503f69f9e4c65062c","amp;dn":"REGIS_JUST+THE+INTERVIEWS_720p_20110407_TTL","amp;tr":["udp%3A%2F%2Ftracker.openbittorrent.com%3A80","udp%3A%2F%2Fopen.demonii.com%3A1337","udp%3A%2F%2Ftracker.coppersurfer.tk%3A6969","udp%3A%2F%2Fexodus.desync.com%3A6969"],"infoHash":"1f42b8b2bc35c9a95ea40e9503f69f9e4c65062c","infoHashBuffer":{"type":"Buffer","data":[31,66,184,178,188,53,201,169,94,164,14,149,3,246,159,158,76,101,6,44]},"announce":[],"urlList":[]}}